<mxfile host="app.diagrams.net" modified="2021-08-19T09:03:12.706Z" agent="5.0 (Macintosh; Intel Mac OS X 10_15_7) AppleWebKit/537.36 (KHTML, like Gecko) Chrome/92.0.4515.131 Safari/537.36" etag="0TSxwymJt5unOQA5uE0r" version="14.8.6" type="github">
  <diagram id="0o0fNlaMNB56jFeCoBVo" name="Page-1">
    <mxGraphModel dx="2066" dy="1070" grid="1" gridSize="10" guides="1" tooltips="1" connect="1" arrows="1" fold="1" page="1" pageScale="1" pageWidth="1169" pageHeight="1654" math="0" shadow="0">
      <root>
        <mxCell id="0" />
        <mxCell id="1" parent="0" />
        <mxCell id="Kj8OIUPHK9y5Ar2EBf14-1" value="流量分发" style="rounded=0;whiteSpace=wrap;html=1;fillColor=#d5e8d4;strokeColor=#82b366;" vertex="1" parent="1">
          <mxGeometry x="125" y="20" width="140" height="70" as="geometry" />
        </mxCell>
        <mxCell id="Kj8OIUPHK9y5Ar2EBf14-8" value="排序服务" style="rounded=0;whiteSpace=wrap;html=1;fillColor=#f8cecc;strokeColor=#b85450;" vertex="1" parent="1">
          <mxGeometry x="125" y="160" width="140" height="70" as="geometry" />
        </mxCell>
        <mxCell id="Kj8OIUPHK9y5Ar2EBf14-12" value="" style="rounded=0;whiteSpace=wrap;html=1;fillColor=#d5e8d4;strokeColor=#82b366;" vertex="1" parent="1">
          <mxGeometry x="265" y="20" width="440" height="70" as="geometry" />
        </mxCell>
        <mxCell id="Kj8OIUPHK9y5Ar2EBf14-16" value="Maxwell" style="rounded=1;whiteSpace=wrap;html=1;" vertex="1" parent="1">
          <mxGeometry x="435" y="30" width="110" height="50" as="geometry" />
        </mxCell>
        <mxCell id="Kj8OIUPHK9y5Ar2EBf14-17" value="" style="rounded=0;whiteSpace=wrap;html=1;fillColor=#f8cecc;strokeColor=#b85450;" vertex="1" parent="1">
          <mxGeometry x="265" y="160" width="440" height="70" as="geometry" />
        </mxCell>
        <mxCell id="Kj8OIUPHK9y5Ar2EBf14-18" value="特征服务" style="rounded=1;whiteSpace=wrap;html=1;" vertex="1" parent="1">
          <mxGeometry x="295" y="170" width="110" height="50" as="geometry" />
        </mxCell>
        <mxCell id="Kj8OIUPHK9y5Ar2EBf14-19" value="推理计算" style="rounded=1;whiteSpace=wrap;html=1;" vertex="1" parent="1">
          <mxGeometry x="435" y="170" width="110" height="50" as="geometry" />
        </mxCell>
        <mxCell id="Kj8OIUPHK9y5Ar2EBf14-20" value="模型和特征管理" style="rounded=1;whiteSpace=wrap;html=1;" vertex="1" parent="1">
          <mxGeometry x="570" y="170" width="110" height="50" as="geometry" />
        </mxCell>
        <mxCell id="Kj8OIUPHK9y5Ar2EBf14-21" value="模型" style="rounded=0;whiteSpace=wrap;html=1;fillColor=#e1d5e7;strokeColor=#9673a6;" vertex="1" parent="1">
          <mxGeometry x="125" y="300" width="140" height="70" as="geometry" />
        </mxCell>
        <mxCell id="Kj8OIUPHK9y5Ar2EBf14-22" value="" style="rounded=0;whiteSpace=wrap;html=1;fillColor=#e1d5e7;strokeColor=#9673a6;" vertex="1" parent="1">
          <mxGeometry x="265" y="300" width="440" height="70" as="geometry" />
        </mxCell>
        <mxCell id="Kj8OIUPHK9y5Ar2EBf14-23" value="XGBoost" style="rounded=1;whiteSpace=wrap;html=1;" vertex="1" parent="1">
          <mxGeometry x="295" y="315" width="80" height="40" as="geometry" />
        </mxCell>
        <mxCell id="Kj8OIUPHK9y5Ar2EBf14-26" value="LR" style="rounded=1;whiteSpace=wrap;html=1;" vertex="1" parent="1">
          <mxGeometry x="395" y="315" width="80" height="40" as="geometry" />
        </mxCell>
        <mxCell id="Kj8OIUPHK9y5Ar2EBf14-27" value="FM" style="rounded=1;whiteSpace=wrap;html=1;" vertex="1" parent="1">
          <mxGeometry x="505" y="315" width="80" height="40" as="geometry" />
        </mxCell>
        <mxCell id="Kj8OIUPHK9y5Ar2EBf14-28" value="DL" style="rounded=1;whiteSpace=wrap;html=1;" vertex="1" parent="1">
          <mxGeometry x="600" y="315" width="80" height="40" as="geometry" />
        </mxCell>
        <mxCell id="Kj8OIUPHK9y5Ar2EBf14-29" value="特征" style="rounded=0;whiteSpace=wrap;html=1;fillColor=#ffe6cc;strokeColor=#d79b00;" vertex="1" parent="1">
          <mxGeometry x="125" y="370" width="140" height="70" as="geometry" />
        </mxCell>
        <mxCell id="Kj8OIUPHK9y5Ar2EBf14-30" value="" style="rounded=0;whiteSpace=wrap;html=1;fillColor=#ffe6cc;strokeColor=#d79b00;" vertex="1" parent="1">
          <mxGeometry x="265" y="370" width="440" height="70" as="geometry" />
        </mxCell>
        <mxCell id="Kj8OIUPHK9y5Ar2EBf14-31" value="Query特征" style="rounded=1;whiteSpace=wrap;html=1;" vertex="1" parent="1">
          <mxGeometry x="295" y="380" width="110" height="50" as="geometry" />
        </mxCell>
        <mxCell id="Kj8OIUPHK9y5Ar2EBf14-32" value="商品特征" style="rounded=1;whiteSpace=wrap;html=1;" vertex="1" parent="1">
          <mxGeometry x="435" y="380" width="110" height="50" as="geometry" />
        </mxCell>
        <mxCell id="Kj8OIUPHK9y5Ar2EBf14-33" value="上下文特征" style="rounded=1;whiteSpace=wrap;html=1;" vertex="1" parent="1">
          <mxGeometry x="570" y="380" width="110" height="50" as="geometry" />
        </mxCell>
        <mxCell id="Kj8OIUPHK9y5Ar2EBf14-34" value="基础数据" style="rounded=0;whiteSpace=wrap;html=1;fillColor=#bac8d3;strokeColor=#23445d;" vertex="1" parent="1">
          <mxGeometry x="125" y="440" width="140" height="70" as="geometry" />
        </mxCell>
        <mxCell id="Kj8OIUPHK9y5Ar2EBf14-35" value="" style="rounded=0;whiteSpace=wrap;html=1;fillColor=#bac8d3;strokeColor=#23445d;" vertex="1" parent="1">
          <mxGeometry x="265" y="440" width="440" height="70" as="geometry" />
        </mxCell>
        <mxCell id="Kj8OIUPHK9y5Ar2EBf14-36" value="行为日志" style="rounded=1;whiteSpace=wrap;html=1;" vertex="1" parent="1">
          <mxGeometry x="345" y="450" width="110" height="50" as="geometry" />
        </mxCell>
        <mxCell id="Kj8OIUPHK9y5Ar2EBf14-37" value="商品基础数据" style="rounded=1;whiteSpace=wrap;html=1;" vertex="1" parent="1">
          <mxGeometry x="515" y="450" width="110" height="50" as="geometry" />
        </mxCell>
        <mxCell id="Kj8OIUPHK9y5Ar2EBf14-39" value="线上服务&lt;br&gt;Dubbo" style="rounded=0;whiteSpace=wrap;html=1;gradientColor=#ea6b66;fillColor=#f8cecc;strokeColor=#b85450;" vertex="1" parent="1">
          <mxGeometry x="705" y="20" width="140" height="210" as="geometry" />
        </mxCell>
        <mxCell id="Kj8OIUPHK9y5Ar2EBf14-40" value="离线计算&lt;br&gt;Airflow&lt;br&gt;Spark&lt;br&gt;Hive&lt;br&gt;Tensorflow" style="rounded=0;whiteSpace=wrap;html=1;gradientColor=#7ea6e0;fillColor=#dae8fc;strokeColor=#6c8ebf;" vertex="1" parent="1">
          <mxGeometry x="705" y="300" width="140" height="210" as="geometry" />
        </mxCell>
        <mxCell id="Kj8OIUPHK9y5Ar2EBf14-46" value="召回服务" style="rounded=0;whiteSpace=wrap;html=1;fillColor=#b1ddf0;strokeColor=#10739e;" vertex="1" parent="1">
          <mxGeometry x="125" y="90" width="140" height="70" as="geometry" />
        </mxCell>
        <mxCell id="Kj8OIUPHK9y5Ar2EBf14-47" value="" style="rounded=0;whiteSpace=wrap;html=1;fillColor=#b1ddf0;strokeColor=#10739e;" vertex="1" parent="1">
          <mxGeometry x="265" y="90" width="440" height="70" as="geometry" />
        </mxCell>
        <mxCell id="Kj8OIUPHK9y5Ar2EBf14-48" value="I2I" style="rounded=1;whiteSpace=wrap;html=1;" vertex="1" parent="1">
          <mxGeometry x="295" y="105" width="80" height="40" as="geometry" />
        </mxCell>
        <mxCell id="Kj8OIUPHK9y5Ar2EBf14-49" value="向量召回" style="rounded=1;whiteSpace=wrap;html=1;" vertex="1" parent="1">
          <mxGeometry x="395" y="105" width="80" height="40" as="geometry" />
        </mxCell>
        <mxCell id="Kj8OIUPHK9y5Ar2EBf14-50" value="类目召回" style="rounded=1;whiteSpace=wrap;html=1;" vertex="1" parent="1">
          <mxGeometry x="505" y="105" width="80" height="40" as="geometry" />
        </mxCell>
        <mxCell id="Kj8OIUPHK9y5Ar2EBf14-51" value="截断召回" style="rounded=1;whiteSpace=wrap;html=1;" vertex="1" parent="1">
          <mxGeometry x="600" y="105" width="80" height="40" as="geometry" />
        </mxCell>
        <mxCell id="Kj8OIUPHK9y5Ar2EBf14-52" value="" style="rounded=0;whiteSpace=wrap;html=1;dashed=1;strokeWidth=1;perimeterSpacing=0;shadow=0;sketch=0;glass=0;" vertex="1" parent="1">
          <mxGeometry x="110" y="1120" width="600" height="530" as="geometry" />
        </mxCell>
        <mxCell id="Kj8OIUPHK9y5Ar2EBf14-54" value="流量分发" style="rounded=0;whiteSpace=wrap;html=1;fillColor=#d5e8d4;strokeColor=#82b366;" vertex="1" parent="1">
          <mxGeometry x="120" y="1130" width="140" height="70" as="geometry" />
        </mxCell>
        <mxCell id="Kj8OIUPHK9y5Ar2EBf14-55" value="" style="rounded=0;whiteSpace=wrap;html=1;fillColor=#d5e8d4;strokeColor=#82b366;" vertex="1" parent="1">
          <mxGeometry x="260" y="1130" width="440" height="70" as="geometry" />
        </mxCell>
        <mxCell id="Kj8OIUPHK9y5Ar2EBf14-56" value="Maxwell" style="rounded=1;whiteSpace=wrap;html=1;" vertex="1" parent="1">
          <mxGeometry x="430" y="1140" width="110" height="50" as="geometry" />
        </mxCell>
        <mxCell id="Kj8OIUPHK9y5Ar2EBf14-57" value="排序服务" style="rounded=0;whiteSpace=wrap;html=1;fillColor=#f8cecc;strokeColor=#b85450;" vertex="1" parent="1">
          <mxGeometry x="120" y="1270" width="140" height="70" as="geometry" />
        </mxCell>
        <mxCell id="Kj8OIUPHK9y5Ar2EBf14-58" value="" style="rounded=0;whiteSpace=wrap;html=1;fillColor=#f8cecc;strokeColor=#b85450;" vertex="1" parent="1">
          <mxGeometry x="260" y="1270" width="440" height="70" as="geometry" />
        </mxCell>
        <mxCell id="Kj8OIUPHK9y5Ar2EBf14-59" value="特征服务" style="rounded=1;whiteSpace=wrap;html=1;" vertex="1" parent="1">
          <mxGeometry x="290" y="1280" width="110" height="50" as="geometry" />
        </mxCell>
        <mxCell id="Kj8OIUPHK9y5Ar2EBf14-60" value="推理计算" style="rounded=1;whiteSpace=wrap;html=1;" vertex="1" parent="1">
          <mxGeometry x="430" y="1280" width="110" height="50" as="geometry" />
        </mxCell>
        <mxCell id="Kj8OIUPHK9y5Ar2EBf14-61" value="模型和特征管理" style="rounded=1;whiteSpace=wrap;html=1;" vertex="1" parent="1">
          <mxGeometry x="565" y="1280" width="110" height="50" as="geometry" />
        </mxCell>
        <mxCell id="Kj8OIUPHK9y5Ar2EBf14-62" value="召回服务" style="rounded=0;whiteSpace=wrap;html=1;fillColor=#b1ddf0;strokeColor=#10739e;" vertex="1" parent="1">
          <mxGeometry x="120" y="1200" width="140" height="70" as="geometry" />
        </mxCell>
        <mxCell id="Kj8OIUPHK9y5Ar2EBf14-63" value="" style="rounded=0;whiteSpace=wrap;html=1;fillColor=#b1ddf0;strokeColor=#10739e;" vertex="1" parent="1">
          <mxGeometry x="260" y="1200" width="440" height="70" as="geometry" />
        </mxCell>
        <mxCell id="Kj8OIUPHK9y5Ar2EBf14-64" value="I2I" style="rounded=1;whiteSpace=wrap;html=1;" vertex="1" parent="1">
          <mxGeometry x="290" y="1215" width="80" height="40" as="geometry" />
        </mxCell>
        <mxCell id="Kj8OIUPHK9y5Ar2EBf14-65" value="向量召回" style="rounded=1;whiteSpace=wrap;html=1;" vertex="1" parent="1">
          <mxGeometry x="390" y="1215" width="80" height="40" as="geometry" />
        </mxCell>
        <mxCell id="Kj8OIUPHK9y5Ar2EBf14-66" value="类目召回" style="rounded=1;whiteSpace=wrap;html=1;" vertex="1" parent="1">
          <mxGeometry x="490" y="1215" width="80" height="40" as="geometry" />
        </mxCell>
        <mxCell id="Kj8OIUPHK9y5Ar2EBf14-67" value="截断召回" style="rounded=1;whiteSpace=wrap;html=1;" vertex="1" parent="1">
          <mxGeometry x="595" y="1215" width="80" height="40" as="geometry" />
        </mxCell>
        <mxCell id="Kj8OIUPHK9y5Ar2EBf14-69" value="" style="rounded=0;whiteSpace=wrap;html=1;dashed=1;strokeWidth=1;perimeterSpacing=0;shadow=0;sketch=0;glass=0;" vertex="1" parent="1">
          <mxGeometry x="710" y="1120" width="160" height="530" as="geometry" />
        </mxCell>
        <mxCell id="Kj8OIUPHK9y5Ar2EBf14-70" value="模型" style="rounded=0;whiteSpace=wrap;html=1;fillColor=#e1d5e7;strokeColor=#9673a6;" vertex="1" parent="1">
          <mxGeometry x="120" y="1430" width="140" height="70" as="geometry" />
        </mxCell>
        <mxCell id="Kj8OIUPHK9y5Ar2EBf14-71" value="" style="rounded=0;whiteSpace=wrap;html=1;fillColor=#e1d5e7;strokeColor=#9673a6;" vertex="1" parent="1">
          <mxGeometry x="260" y="1430" width="440" height="70" as="geometry" />
        </mxCell>
        <mxCell id="Kj8OIUPHK9y5Ar2EBf14-72" value="XGBoost" style="rounded=1;whiteSpace=wrap;html=1;" vertex="1" parent="1">
          <mxGeometry x="290" y="1445" width="80" height="40" as="geometry" />
        </mxCell>
        <mxCell id="Kj8OIUPHK9y5Ar2EBf14-73" value="LR" style="rounded=1;whiteSpace=wrap;html=1;" vertex="1" parent="1">
          <mxGeometry x="390" y="1445" width="80" height="40" as="geometry" />
        </mxCell>
        <mxCell id="Kj8OIUPHK9y5Ar2EBf14-74" value="FM" style="rounded=1;whiteSpace=wrap;html=1;" vertex="1" parent="1">
          <mxGeometry x="490" y="1445" width="80" height="40" as="geometry" />
        </mxCell>
        <mxCell id="Kj8OIUPHK9y5Ar2EBf14-75" value="DL" style="rounded=1;whiteSpace=wrap;html=1;" vertex="1" parent="1">
          <mxGeometry x="595" y="1445" width="80" height="40" as="geometry" />
        </mxCell>
        <mxCell id="Kj8OIUPHK9y5Ar2EBf14-76" value="特征" style="rounded=0;whiteSpace=wrap;html=1;fillColor=#ffe6cc;strokeColor=#d79b00;" vertex="1" parent="1">
          <mxGeometry x="120" y="1500" width="140" height="70" as="geometry" />
        </mxCell>
        <mxCell id="Kj8OIUPHK9y5Ar2EBf14-77" value="" style="rounded=0;whiteSpace=wrap;html=1;fillColor=#ffe6cc;strokeColor=#d79b00;" vertex="1" parent="1">
          <mxGeometry x="260" y="1500" width="440" height="70" as="geometry" />
        </mxCell>
        <mxCell id="Kj8OIUPHK9y5Ar2EBf14-78" value="Query特征" style="rounded=1;whiteSpace=wrap;html=1;" vertex="1" parent="1">
          <mxGeometry x="290" y="1510" width="110" height="50" as="geometry" />
        </mxCell>
        <mxCell id="Kj8OIUPHK9y5Ar2EBf14-79" value="商品特征" style="rounded=1;whiteSpace=wrap;html=1;" vertex="1" parent="1">
          <mxGeometry x="430" y="1510" width="110" height="50" as="geometry" />
        </mxCell>
        <mxCell id="Kj8OIUPHK9y5Ar2EBf14-80" value="上下文特征" style="rounded=1;whiteSpace=wrap;html=1;" vertex="1" parent="1">
          <mxGeometry x="565" y="1510" width="110" height="50" as="geometry" />
        </mxCell>
        <mxCell id="Kj8OIUPHK9y5Ar2EBf14-81" value="基础数据" style="rounded=0;whiteSpace=wrap;html=1;fillColor=#bac8d3;strokeColor=#23445d;" vertex="1" parent="1">
          <mxGeometry x="120" y="1570" width="140" height="70" as="geometry" />
        </mxCell>
        <mxCell id="Kj8OIUPHK9y5Ar2EBf14-82" value="" style="rounded=0;whiteSpace=wrap;html=1;fillColor=#bac8d3;strokeColor=#23445d;" vertex="1" parent="1">
          <mxGeometry x="260" y="1570" width="440" height="70" as="geometry" />
        </mxCell>
        <mxCell id="Kj8OIUPHK9y5Ar2EBf14-83" value="行为日志" style="rounded=1;whiteSpace=wrap;html=1;" vertex="1" parent="1">
          <mxGeometry x="340" y="1580" width="110" height="50" as="geometry" />
        </mxCell>
        <mxCell id="Kj8OIUPHK9y5Ar2EBf14-84" value="商品基础数据" style="rounded=1;whiteSpace=wrap;html=1;" vertex="1" parent="1">
          <mxGeometry x="510" y="1580" width="110" height="50" as="geometry" />
        </mxCell>
        <mxCell id="Kj8OIUPHK9y5Ar2EBf14-85" value="离线计算&lt;br&gt;Airflow&lt;br&gt;Spark&lt;br&gt;Hive&lt;br&gt;Tensorflow" style="rounded=1;whiteSpace=wrap;html=1;gradientColor=#7ea6e0;fillColor=#dae8fc;strokeColor=#6c8ebf;" vertex="1" parent="1">
          <mxGeometry x="720" y="1430" width="140" height="210" as="geometry" />
        </mxCell>
        <mxCell id="Kj8OIUPHK9y5Ar2EBf14-92" value="存储" style="rounded=0;whiteSpace=wrap;html=1;fillColor=#bac8d3;strokeColor=#23445d;" vertex="1" parent="1">
          <mxGeometry x="120" y="1350" width="140" height="70" as="geometry" />
        </mxCell>
        <mxCell id="Kj8OIUPHK9y5Ar2EBf14-93" value="" style="rounded=0;whiteSpace=wrap;html=1;fillColor=#bac8d3;strokeColor=#23445d;" vertex="1" parent="1">
          <mxGeometry x="260" y="1350" width="440" height="70" as="geometry" />
        </mxCell>
        <mxCell id="Kj8OIUPHK9y5Ar2EBf14-94" value="Redis" style="rounded=1;whiteSpace=wrap;html=1;" vertex="1" parent="1">
          <mxGeometry x="340" y="1360" width="110" height="50" as="geometry" />
        </mxCell>
        <mxCell id="Kj8OIUPHK9y5Ar2EBf14-95" value="Elasticsearch" style="rounded=1;whiteSpace=wrap;html=1;" vertex="1" parent="1">
          <mxGeometry x="510" y="1360" width="110" height="50" as="geometry" />
        </mxCell>
        <mxCell id="Kj8OIUPHK9y5Ar2EBf14-101" value="模型和特征存储" style="rounded=1;whiteSpace=wrap;html=1;strokeColor=#36393d;gradientDirection=south;fillColor=#FDFFC4;" vertex="1" parent="1">
          <mxGeometry x="720" y="1350" width="140" height="70" as="geometry" />
        </mxCell>
        <mxCell id="Kj8OIUPHK9y5Ar2EBf14-68" value="线上服务&lt;br&gt;Dubbo" style="rounded=1;whiteSpace=wrap;html=1;gradientColor=#ea6b66;fillColor=#f8cecc;strokeColor=#b85450;" vertex="1" parent="1">
          <mxGeometry x="720" y="1130" width="140" height="210" as="geometry" />
        </mxCell>
        <mxCell id="Kj8OIUPHK9y5Ar2EBf14-103" value="存储" style="rounded=0;whiteSpace=wrap;html=1;fillColor=#bac8d3;strokeColor=#23445d;" vertex="1" parent="1">
          <mxGeometry x="125" y="230" width="140" height="70" as="geometry" />
        </mxCell>
        <mxCell id="Kj8OIUPHK9y5Ar2EBf14-104" value="" style="rounded=0;whiteSpace=wrap;html=1;fillColor=#bac8d3;strokeColor=#23445d;" vertex="1" parent="1">
          <mxGeometry x="265" y="230" width="440" height="70" as="geometry" />
        </mxCell>
        <mxCell id="Kj8OIUPHK9y5Ar2EBf14-105" value="Redis" style="rounded=1;whiteSpace=wrap;html=1;" vertex="1" parent="1">
          <mxGeometry x="345" y="240" width="110" height="50" as="geometry" />
        </mxCell>
        <mxCell id="Kj8OIUPHK9y5Ar2EBf14-106" value="Elasticsearch" style="rounded=1;whiteSpace=wrap;html=1;" vertex="1" parent="1">
          <mxGeometry x="515" y="240" width="110" height="50" as="geometry" />
        </mxCell>
        <mxCell id="Kj8OIUPHK9y5Ar2EBf14-107" value="模型和特征存储" style="rounded=0;whiteSpace=wrap;html=1;strokeColor=#23445d;gradientDirection=south;fillColor=#bac8d3;" vertex="1" parent="1">
          <mxGeometry x="705" y="230" width="140" height="70" as="geometry" />
        </mxCell>
        <mxCell id="Kj8OIUPHK9y5Ar2EBf14-108" value="流量分发" style="rounded=0;whiteSpace=wrap;html=1;" vertex="1" parent="1">
          <mxGeometry x="130" y="582" width="140" height="70" as="geometry" />
        </mxCell>
        <mxCell id="Kj8OIUPHK9y5Ar2EBf14-109" value="排序服务" style="rounded=0;whiteSpace=wrap;html=1;" vertex="1" parent="1">
          <mxGeometry x="130" y="722" width="140" height="70" as="geometry" />
        </mxCell>
        <mxCell id="Kj8OIUPHK9y5Ar2EBf14-110" value="" style="rounded=0;whiteSpace=wrap;html=1;" vertex="1" parent="1">
          <mxGeometry x="270" y="582" width="440" height="70" as="geometry" />
        </mxCell>
        <mxCell id="Kj8OIUPHK9y5Ar2EBf14-111" value="Maxwell" style="rounded=1;whiteSpace=wrap;html=1;fillColor=#b1ddf0;strokeColor=#10739e;" vertex="1" parent="1">
          <mxGeometry x="440" y="592" width="110" height="50" as="geometry" />
        </mxCell>
        <mxCell id="Kj8OIUPHK9y5Ar2EBf14-112" value="" style="rounded=0;whiteSpace=wrap;html=1;" vertex="1" parent="1">
          <mxGeometry x="270" y="722" width="440" height="70" as="geometry" />
        </mxCell>
        <mxCell id="Kj8OIUPHK9y5Ar2EBf14-113" value="特征服务" style="rounded=1;whiteSpace=wrap;html=1;fillColor=#b1ddf0;strokeColor=#10739e;" vertex="1" parent="1">
          <mxGeometry x="300" y="732" width="110" height="50" as="geometry" />
        </mxCell>
        <mxCell id="Kj8OIUPHK9y5Ar2EBf14-114" value="推理计算" style="rounded=1;whiteSpace=wrap;html=1;fillColor=#b1ddf0;strokeColor=#10739e;" vertex="1" parent="1">
          <mxGeometry x="440" y="732" width="110" height="50" as="geometry" />
        </mxCell>
        <mxCell id="Kj8OIUPHK9y5Ar2EBf14-115" value="模型和特征管理" style="rounded=1;whiteSpace=wrap;html=1;fillColor=#b1ddf0;strokeColor=#10739e;" vertex="1" parent="1">
          <mxGeometry x="575" y="732" width="110" height="50" as="geometry" />
        </mxCell>
        <mxCell id="Kj8OIUPHK9y5Ar2EBf14-116" value="模型" style="rounded=0;whiteSpace=wrap;html=1;" vertex="1" parent="1">
          <mxGeometry x="130" y="862" width="140" height="70" as="geometry" />
        </mxCell>
        <mxCell id="Kj8OIUPHK9y5Ar2EBf14-117" value="" style="rounded=0;whiteSpace=wrap;html=1;" vertex="1" parent="1">
          <mxGeometry x="270" y="862" width="440" height="70" as="geometry" />
        </mxCell>
        <mxCell id="Kj8OIUPHK9y5Ar2EBf14-118" value="XGBoost" style="rounded=1;whiteSpace=wrap;html=1;fillColor=#b1ddf0;strokeColor=#10739e;" vertex="1" parent="1">
          <mxGeometry x="300" y="877" width="80" height="40" as="geometry" />
        </mxCell>
        <mxCell id="Kj8OIUPHK9y5Ar2EBf14-119" value="LR" style="rounded=1;whiteSpace=wrap;html=1;fillColor=#b1ddf0;strokeColor=#10739e;" vertex="1" parent="1">
          <mxGeometry x="400" y="877" width="80" height="40" as="geometry" />
        </mxCell>
        <mxCell id="Kj8OIUPHK9y5Ar2EBf14-120" value="FM" style="rounded=1;whiteSpace=wrap;html=1;fillColor=#b1ddf0;strokeColor=#10739e;" vertex="1" parent="1">
          <mxGeometry x="510" y="877" width="80" height="40" as="geometry" />
        </mxCell>
        <mxCell id="Kj8OIUPHK9y5Ar2EBf14-121" value="DL" style="rounded=1;whiteSpace=wrap;html=1;fillColor=#b1ddf0;strokeColor=#10739e;" vertex="1" parent="1">
          <mxGeometry x="605" y="877" width="80" height="40" as="geometry" />
        </mxCell>
        <mxCell id="Kj8OIUPHK9y5Ar2EBf14-122" value="特征" style="rounded=0;whiteSpace=wrap;html=1;" vertex="1" parent="1">
          <mxGeometry x="130" y="932" width="140" height="70" as="geometry" />
        </mxCell>
        <mxCell id="Kj8OIUPHK9y5Ar2EBf14-123" value="" style="rounded=0;whiteSpace=wrap;html=1;" vertex="1" parent="1">
          <mxGeometry x="270" y="932" width="440" height="70" as="geometry" />
        </mxCell>
        <mxCell id="Kj8OIUPHK9y5Ar2EBf14-124" value="Query特征" style="rounded=1;whiteSpace=wrap;html=1;fillColor=#b1ddf0;strokeColor=#10739e;" vertex="1" parent="1">
          <mxGeometry x="300" y="942" width="110" height="50" as="geometry" />
        </mxCell>
        <mxCell id="Kj8OIUPHK9y5Ar2EBf14-125" value="商品特征" style="rounded=1;whiteSpace=wrap;html=1;fillColor=#b1ddf0;strokeColor=#10739e;" vertex="1" parent="1">
          <mxGeometry x="440" y="942" width="110" height="50" as="geometry" />
        </mxCell>
        <mxCell id="Kj8OIUPHK9y5Ar2EBf14-126" value="上下文特征" style="rounded=1;whiteSpace=wrap;html=1;fillColor=#b1ddf0;strokeColor=#10739e;" vertex="1" parent="1">
          <mxGeometry x="575" y="942" width="110" height="50" as="geometry" />
        </mxCell>
        <mxCell id="Kj8OIUPHK9y5Ar2EBf14-127" value="基础数据" style="rounded=0;whiteSpace=wrap;html=1;" vertex="1" parent="1">
          <mxGeometry x="130" y="1002" width="140" height="70" as="geometry" />
        </mxCell>
        <mxCell id="Kj8OIUPHK9y5Ar2EBf14-128" value="" style="rounded=0;whiteSpace=wrap;html=1;" vertex="1" parent="1">
          <mxGeometry x="270" y="1002" width="440" height="70" as="geometry" />
        </mxCell>
        <mxCell id="Kj8OIUPHK9y5Ar2EBf14-129" value="行为日志" style="rounded=1;whiteSpace=wrap;html=1;fillColor=#b1ddf0;strokeColor=#10739e;" vertex="1" parent="1">
          <mxGeometry x="350" y="1012" width="110" height="50" as="geometry" />
        </mxCell>
        <mxCell id="Kj8OIUPHK9y5Ar2EBf14-130" value="商品基础数据" style="rounded=1;whiteSpace=wrap;html=1;fillColor=#b1ddf0;strokeColor=#10739e;" vertex="1" parent="1">
          <mxGeometry x="520" y="1012" width="110" height="50" as="geometry" />
        </mxCell>
        <mxCell id="Kj8OIUPHK9y5Ar2EBf14-131" value="线上服务&lt;br&gt;Dubbo" style="rounded=0;whiteSpace=wrap;html=1;" vertex="1" parent="1">
          <mxGeometry x="710" y="582" width="140" height="210" as="geometry" />
        </mxCell>
        <mxCell id="Kj8OIUPHK9y5Ar2EBf14-132" value="离线计算&lt;br&gt;Airflow&lt;br&gt;Spark&lt;br&gt;Hive&lt;br&gt;Tensorflow" style="rounded=0;whiteSpace=wrap;html=1;" vertex="1" parent="1">
          <mxGeometry x="710" y="862" width="140" height="210" as="geometry" />
        </mxCell>
        <mxCell id="Kj8OIUPHK9y5Ar2EBf14-133" value="召回服务" style="rounded=0;whiteSpace=wrap;html=1;" vertex="1" parent="1">
          <mxGeometry x="130" y="652" width="140" height="70" as="geometry" />
        </mxCell>
        <mxCell id="Kj8OIUPHK9y5Ar2EBf14-134" value="" style="rounded=0;whiteSpace=wrap;html=1;" vertex="1" parent="1">
          <mxGeometry x="270" y="652" width="440" height="70" as="geometry" />
        </mxCell>
        <mxCell id="Kj8OIUPHK9y5Ar2EBf14-135" value="I2I" style="rounded=1;whiteSpace=wrap;html=1;fillColor=#b1ddf0;strokeColor=#10739e;" vertex="1" parent="1">
          <mxGeometry x="300" y="667" width="80" height="40" as="geometry" />
        </mxCell>
        <mxCell id="Kj8OIUPHK9y5Ar2EBf14-136" value="向量召回" style="rounded=1;whiteSpace=wrap;html=1;fillColor=#b1ddf0;strokeColor=#10739e;" vertex="1" parent="1">
          <mxGeometry x="400" y="667" width="80" height="40" as="geometry" />
        </mxCell>
        <mxCell id="Kj8OIUPHK9y5Ar2EBf14-137" value="类目召回" style="rounded=1;whiteSpace=wrap;html=1;fillColor=#b1ddf0;strokeColor=#10739e;" vertex="1" parent="1">
          <mxGeometry x="510" y="667" width="80" height="40" as="geometry" />
        </mxCell>
        <mxCell id="Kj8OIUPHK9y5Ar2EBf14-138" value="截断召回" style="rounded=1;whiteSpace=wrap;html=1;fillColor=#b1ddf0;strokeColor=#10739e;" vertex="1" parent="1">
          <mxGeometry x="605" y="667" width="80" height="40" as="geometry" />
        </mxCell>
        <mxCell id="Kj8OIUPHK9y5Ar2EBf14-139" value="存储" style="rounded=0;whiteSpace=wrap;html=1;" vertex="1" parent="1">
          <mxGeometry x="130" y="792" width="140" height="70" as="geometry" />
        </mxCell>
        <mxCell id="Kj8OIUPHK9y5Ar2EBf14-140" value="" style="rounded=0;whiteSpace=wrap;html=1;" vertex="1" parent="1">
          <mxGeometry x="270" y="792" width="440" height="70" as="geometry" />
        </mxCell>
        <mxCell id="Kj8OIUPHK9y5Ar2EBf14-141" value="Redis" style="rounded=1;whiteSpace=wrap;html=1;fillColor=#b1ddf0;strokeColor=#10739e;" vertex="1" parent="1">
          <mxGeometry x="350" y="802" width="110" height="50" as="geometry" />
        </mxCell>
        <mxCell id="Kj8OIUPHK9y5Ar2EBf14-142" value="Elasticsearch" style="rounded=1;whiteSpace=wrap;html=1;fillColor=#b1ddf0;strokeColor=#10739e;" vertex="1" parent="1">
          <mxGeometry x="520" y="802" width="110" height="50" as="geometry" />
        </mxCell>
        <mxCell id="Kj8OIUPHK9y5Ar2EBf14-143" value="模型和特征存储" style="rounded=0;whiteSpace=wrap;html=1;gradientDirection=south;" vertex="1" parent="1">
          <mxGeometry x="710" y="792" width="140" height="70" as="geometry" />
        </mxCell>
      </root>
    </mxGraphModel>
  </diagram>
</mxfile>
